<?xml version="1.0" encoding="UTF-8"?>
<svg id="Camada_1" data-name="Camada 1" xmlns="http://www.w3.org/2000/svg" viewBox="0 0 1029.07 228.71">
  <defs>
    <style>
      .cls-1, .cls-2 {
        fill: #fff;
      }

      .cls-2 {
        fill-rule: evenodd;
      }
    </style>
  </defs>
  <g>
    <path class="cls-1" d="M16.34,33.08c4.61-.1,9.65-.02,14.29-.01h26.7s26.68,0,26.68,0c4.62,0,9.59-.08,14.17.02,1.03.68,2.49,1.93,3.48,2.72l5.36,4.19,7.82,6.13c1.37,1.07,3.06,2.33,4.32,3.43.12.74.07,1.94.06,2.72l-.02,4.28c0,4.06.14,8.54-.02,12.56-.54.67-2.15,1.95-2.91,2.59l-5.78,4.82c-7.43,6.26-15.01,12.58-22.32,18.92l-28.77,24.49c-2.85.1-6.5.01-9.45.01h-21.49c-3.79,0-8.39-.1-12.11.04-.1-3.69-.02-7.58-.02-11.3v-21.57s.02-54.04.02-54.04ZM35.36,104.78c2.32.11,5.19.03,7.56.04,2.42,0,5.32.05,7.73-.05l24.03-20.42,17.65-14.97,5.44-4.58c.9-.76,2.15-1.74,2.98-2.51.08-1.27.13-4.56,0-5.81-2.06-1.63-4.17-3.24-6.26-4.85-1.42-1.1-2.9-2.33-4.38-3.37h-35.15s-12.42,0-12.42,0c-2.32,0-4.81-.04-7.12.04-.19.65-.11,4.4-.11,5.22l.02,12.43v26.77s-.02,7.42-.02,7.42c0,1.5-.06,3.17.05,4.65Z"/>
    <path class="cls-1" d="M119.26,85.47c-.07.59-.03.94.01,1.54v12.65c0,2.35.06,4.88-.02,7.2-.41.47-1.63,1.38-2.2,1.82l-3.52,2.74c-3.52,2.77-7.24,5.9-10.79,8.58-1.07.04-2.27.05-3.34.03-6.9-.14-14.02.19-20.9-.07,1.12-.92,2.27-1.98,3.4-2.93l12.79-10.89,23.57-19.85c.33-.28.67-.55,1.01-.81Z"/>
    <path class="cls-1" d="M119.26,85.47c-.07.59-.03.94.01,1.54-.39-.35-.56-.44-1.02-.72.33-.28.67-.55,1.01-.81Z"/>
  </g>
  <g id="douglas-custodio-logo">
    <path id="black-logo-elements" class="cls-2" d="M836.24,167.13c-1.26,1.24-3.77,3.7-4.91,4.94-.07.34-.03,1.12-.04,1.59,0,6.46,0,21.81,0,23.28.94,1.31,3.71,3.72,4.63,4.76.27.24.28.34.52.36,1.66.01,21.03,0,27.6,0,.21.01.3-.05.45-.21.54-.53,3.35-3.35,4.33-4.33.32-.36.43-.35.47-.64-.02-1.96.02-17.84,0-24.03-.01-.46.03-.66-.04-.8-.5-.54-1.95-2.01-2.66-2.71-.8-.69-1.69-1.92-2.45-2.3-1.05-.02-22.71-.04-27.86.04l-.04.03ZM838.35,173.97c.08-.09.63-.64.82-.83.21-.2.17-.1.39-.12,3.9,0,8.65,0,12.82,0,4.52,0,8.55,0,8.88,0,.21.08.64.66.91.88.33,2.75.04,15.9.1,20.19-.18.24-.66.66-.86.88-.17.17-.16.11-.3.12-1.93,0-3.89,0-6.16,0-4.99,0-11.16,0-11.62,0-.31.13-.76.93-1.14.92-.3-.07-1.5-.77-1.79-.84-.19-.06-.43.26-.75.57-.36.46-.58.12-.85-.15-.13-.14-.31-.31-.44-.45-.11-.12-.04-.16-.06-.41v-.82c.01-5.52-.03-14.55.02-19.9l.04-.04ZM763.3,167.06c-.02,5.62,0,30.43,0,33.97.11.19.63.64.88.9.18.17.25.11.6.12,1.07,0,3.95,0,5.3,0,.43.1.13-.49.22-1.66,0-6.89.01-32.98,0-33.33-1.45-.05-6.83,0-6.97-.01h-.02ZM663.3,167.07c.06,7.2-.12,26.79.05,34.03.18.16.7.79.99.95.75-.04,13.84.05,18.4,0,4.52.01,11.09,0,14.5,0,.82-.65,2.54-2.54,3.55-3.5.64-.59.67-.89,1.1-1.7.12-.24.33-.63.4-.87-.04-1.56.06-18.1-.01-23.92-1.43-1.48-3.51-3.56-4.98-4.99.49-.1-28.48.03-33.99-.01h0ZM670.35,174.01c.13-.08.81-.93,1.04-.95,4.18,0,9.2,0,13.64,0,4.72,0,8.9,0,9.23,0,.25.16.84.82.98.95.15,5.89.03,14.2.04,20.05-.18.24-.65.65-.86.88-.29.26-.78.07-1.27.12-2.35.01-7.48-.03-7.82.02-.26.19-.67.64-.91.86-.16.14-.24.12-.5.12-.96,0-2.39,0-3.37,0-.72-.02-1.09.05-1.26-.06-.33-.26-.63-.62-.95-.89-1.75-.16-4.86,0-6.74-.06-.24,0-.27.02-.51-.22-.25-.24-.65-.64-.72-.73-.13-.19-.02-.33-.06-.62.01-5.59-.03-14.36.02-19.44l.04-.04ZM568.24,167.13c-1.26,1.24-3.77,3.7-4.91,4.94-.07.34-.03,1.12-.04,1.59,0,6.46,0,21.81,0,23.28.94,1.31,3.71,3.72,4.63,4.76.27.24.28.34.52.36,1.66.01,21.03,0,27.6,0,.21.01.3-.05.45-.21.54-.53,3.35-3.35,4.33-4.33.32-.36.43-.35.47-.64-.02-1.96.02-17.84,0-24.03-.01-.46.03-.66-.04-.8-.5-.54-1.95-2.01-2.66-2.71-.8-.69-1.69-1.92-2.45-2.3-1.05-.02-22.71-.04-27.86.04l-.04.03ZM569.35,174.01c.08-.09.63-.63.82-.82.22-.22.2-.09.45-.12,4.17,0,9.26,0,13.7,0,4.6,0,8.61,0,8.94,0,.2.08.64.65.91.88.33,3.03.04,16.54.1,21.12-.17.23-.51.51-.76.77-.2.19-.33.12-.57-.13-.28-.25-.47-.54-.72-.64-.8.09-10.38-.2-11.05.12-.21.16-.69.78-.97.87-.13,0-.43,0-.88,0-2.16,0-7.39,0-7.96,0-.57-.33-1.51-1.5-1.93-1.84-.38-.36-.05-5.27-.15-10.45,0-2.74-.02-8.03.02-9.71l.04-.04ZM468.34,167.33c-.06.95-.05,3.53-.03,4.56.05.59-.03.96.45,1.12,2.45.2,9.82-.15,12.28.15.65.21,1.24.75,1.27,1.42.02,3.19-.02,24.88.02,27.14.03.25.24.31.98.32,1.03,0,3.27.01,4.17,0,.54-.05.77.01.83-.39.02-1.73,0-11.81,0-19.01v-6.86c-.04-.74.29-.97.95-1.67.74-.75,1.28-1.13,2.25-1.06,2.56-.02,9.76.04,11.25-.03.37-.04.48-.32.51-.66.07-.87.03-3.46.03-4.47-.01-.25-.03-.81-.21-.81-3.62.11-32.27-.37-34.72.18v.07ZM373.8,168.03c-4.75,2.79-4.82,15.3.03,17.98,1.48.96,3.98,1.1,6.1,1.04,4.33,0,9.41,0,13.72,0,3.96-.18,6.84.48,6.15,4.7-.8,3.32-4.4,3.19-7.61,3.56-5.56.83-9.92-.24-15.95-.21-.79.04-1.62.1-2.35.26-3.42.67-4.2,4.43-2.43,6.09.99.81,3.05.54,5.98.6h18.66c2.96.06,6.38.18,8.26-2.36,2.24-2.92,2.09-7.59,1.82-11.24-.31-3.73-2.41-6.89-6.09-7.26-5.78-.36-12.43-.03-18.2-.15-2.35-.02-3.84-.22-4.58-1.43-.92-1.59-.89-4.19.31-5.57.98-1.01,2.54-.91,3.92-.97,4.92-.02,14.64,0,19.55-.01.89-.02,1.75-.02,2.54-.36,1.68-.76,1.89-3.13,1.01-4.5-.61-.96-1.81-1.1-2.9-1.12-2.41-.03-6.29,0-10.36-.01-3.81,0-7.4,0-10.71,0-3.27.03-4.82-.19-6.74.91l-.11.07ZM268.69,167.2c-.22.08-.32.2-.36.42-.07.77-.01,2.93-.03,5.8.09,8.22-.18,20.43.11,23.44.91,1.54,2.72,2.94,3.99,4.29,1.16,1.11,1.38.89,2.9.92,6.68,0,22.77.01,26.28-.01.6-.01,1.02-.38,1.49-.8.86-.81,2.59-2.55,3.41-3.41.52-.59.74-.83.8-1.47.03-2.4,0-14.14.01-21.96-.14-3.63.29-5.94-.21-7.08-1.42-.55-4.07-.19-5.6-.24-.57.03-1.2.13-1.18.83-.03,3.37,0,21.18-.02,25.08-.05,1.4-.87,2.05-2.39,2.05-5.54.04-14.21-.06-19.71.04-2.18.5-3.06.46-2.89-1.95,0-7.72.01-17.65,0-25.15.05-.66-.46-.87-1.04-.88-1.38-.03-4.03-.15-5.48.07l-.08.02ZM169.54,171.96c-.55,1.29-.11,2.38-.24,5.11,0,5.44,0,16.91,0,19.92,0,.83.66,1.16,1.28,1.63,1.43.83,2.74,3.03,4.27,3.43,2.53.04,18.78,0,25.41.02,2.23-.02,3.87.04,4.51-.04.49-.14.44-.75.49-1.2-.02-1.19.2-3.01-.23-4.07-.31-.61-.98-.63-1.65-.68-1.19-.04-2.99.02-4.22-.04-2.02-.06-2.65-.92-4.68-.97-2.09-.01-6.3-.01-8.4,0-1.03.01-1.94.35-2.94.32-1.77-.2-3.89-.31-5.75-.45-2.06-.31-2.1-1.07-2.11-2.83,0-3.31,0-6.74,0-10.07,0-2.1,0-4.06,0-5.47-.11-1.73.19-3.4,1.67-3.47,6.79-.08,24.81.03,27.71-.05.61-.15.52-.55.6-1.38-.07-1.4.28-3.38-.27-4.44-2.44-.43-11.37-.01-19.46-.15-3.93,0-6.5,0-9.65,0-1.32.01-1.41-.17-2.72,1.13-1.12,1.14-2.62,2.5-3.59,3.69l-.05.08ZM935.92,35.74c-10.53,6.76-11.05,24.02-8.1,35.37,2.13,8.4,8.35,12.79,16.15,13.62,10.34.74,21.35.15,31.92.33,7.5.23,17.44-.62,23.52.77,7.3,1.79,6.41,11.43,1.91,15.59-4.42,3.88-15.74,2.29-22.56,2.64-9.22,0-18.95,0-28.13,0-6.7.17-11.9-.43-18,.44-5.9,1.15-7.13,7.62-4.86,12.06,3.1,4.72,7.44,3.16,14.76,3.5,18.68-.07,43.68.16,61.3-.11,8.21-.31,14.58-5.38,16.96-14.52,2.24-7.84,1.96-17.37-.69-24.88-3.14-8.79-9.12-11.04-18.18-11.44-10.81-.14-23.54-.01-34.71-.05-10.49-.29-25.61,2.52-23.15-12.92,1.79-8.54,15.09-5.49,22-6.08,15.2-.17,34.39.34,48.84-.22,1.42-.18,2.73-.49,3.86-1.23,4.78-3.26,4.47-13.81-2.12-15.13-17.91-1.13-51.11-.08-68.68-.42-4.19-.05-8.4.42-11.92,2.61l-.11.07ZM768.29,118.16c-.02.24-.02,1.57,0,1.79.01.08.03.11.07.11,1,0,15.59,0,18.42,0,.61-.05.4.21.78-.56,1.23-2.3,3.24-6.86,4-7.72.3-.32,1.42-1.38,1.68-1.71.6-1.3,1.29-3.18,1.83-4.5.28-.84.54-.76,1.51-1.82.53-.51,1.22-1.27,1.72-1.69.54-.02,22.95,0,30.53,0,2.57,0,4.24-.02,4.43.01.3.2.72.85,1.19.95.38.06,1.26.06,1.64,0,.46-.07.85-.75,1.23-.95.67-.03,10.55,0,14.05-.01,1.02-.06.91.03,1.67.75.51.48,1.7.12,2.18.31.64.39,1.45,1.38,2.02,1.92.95,1.97,2.2,5.24,3.08,7.05.18.23,1.31,1.32,1.68,1.69.38.37.31.37.63.98l.19.37c.89,1.65,2.1,4.47,2.55,4.93,1.06-.11,18.86.24,18.86-.14-.32-.73-2.57-5.79-3.51-7.89-.54-1.23-.3-.81-1.34-1.88-.34-.35-.78-.75-1.05-1.08-.31-.47-.46-1.19-.77-1.84-.35-.87-.75-1.87-.99-2.48-.3-.77-.21-.62-1-1.42-.62-.71-1.24-.98-1.55-1.96-.52-1.25-1.17-2.96-1.63-4.07-.09-.22-.14-.29-.38-.53-.48-.52-1.44-1.33-1.79-1.89-.97-2.03-2.46-6.26-3.21-7.11-.56-.55-1.44-1.4-1.73-1.78-.48-1.17-1.67-4.13-1.93-4.79-.33-.6-1.83-1.82-2.01-2.12-.12-.15-.2-.41-.46-1.01-.91-1.86-1.81-4.65-2.76-6.2-.5-.51-1.54-1.45-1.89-1.99-.78-1.83-2.09-4.86-2.82-6.57-.21-.49-.56-.65-1.02-1.17-.57-.62-1-.84-1.25-1.46-.75-1.75-2.04-4.75-2.73-6.38-.45-.9-1.91-1.72-2.27-2.62-.82-1.84-2.08-4.98-2.89-6.66-.24-.21-1.27-1.33-1.68-1.69-.31-.32-.3-.31-.41-.55-1.18-2.38-3.25-6.49-4.35-8.7-.46-.81-.41-1.06-.64-1.03-1.57.15-17.2-.22-18.98.11-.49.47-1.66,1.56-2.01,2.12-.98,1.93-2.74,5.5-3.81,7.63-.73,1.03-1.98,1.68-2.35,2.79-.65,1.49-1.99,4.69-2.72,6.32-.47.69-1.99,1.65-2.28,2.72-.42,1.06-1.19,2.96-1.52,3.8-.2.5-.18.49-.62.92-.77.93-1.54,1.18-1.93,2.39-.8,1.84-1.94,4.64-2.7,6.22-.18.28-1.31,1.28-1.68,1.69-.41.38-.3.38-.63,1.08-.85,1.93-1.89,4.62-2.76,6.29-.37.54-1.75,1.52-2,2.15-.51,1.21-1.59,4.02-1.85,4.61-.42.59-1.27,1.33-1.77,1.87-.35.34-.31.37-.56.97-.39.99-1.18,2.95-1.52,3.8-.29.87-1.54,1.75-2.02,2.33-1.98,3.39-6.44,12.9-7.14,14.09-.51.61-1.51,1.51-2.01,2.08-.62,1.31-1.27,3.17-1.83,4.5-.54,1.28-2.37,3.2-3.17,4.52l-.02.09ZM826.44,51.92c3.06,1.13,4.68,5.25,6.29,8,1.57,2.85,3.26,5.63,4.77,8.27,1.37,2.6,9.6,15.65,7.62,17.88-.99.97-4.07.78-8.47.81-2.83,0-5.69,0-8.57,0-5.71,0-11.79,0-17.04,0-1.88-.09-3.08.04-4.22-.81-1.43-1.54,3.14-7.88,4.34-10.8,1.93-3.82,4.18-7.21,6.34-10.83,2.05-2.68,5.45-12.9,8.84-12.53l.1.02ZM645.59,33.13c-.24.06-.28.16-.29.37,0,1.35,0,7.24,0,15.36,0,24.37-.02,68.79.01,70.99.02.13.07.18.2.2.21.02.68,0,1.44.01,20.85.01,77.47,0,83.86,0,.14,0,.24-.03.31-.11.13-.15.16-.53.16-1.39-.11-3.21.2-10.75-.1-14.2-.08-.24-.22-.27-.45-.29-8.93-.04-23.66.02-35.24,0-7.86,0-15.59,0-21.49,0h-8.56c-1.95.16-2.65-.3-3.78-1.76-1.14-6.08.16-62.79-.49-69.03-.15-.16-.53-.19-1.39-.2-3.18.08-11.01-.13-14.15.05h-.05ZM494.68,44.21c-2.29,3.91-2.41,8.52-2.39,13.02,0,11.39-.03,30.99.02,41.47-.24,5.99,1.84,11.92,6.33,15.85,3.81,3.64,8.52,5.67,13.8,5.49,17.98-.38,58.75.83,76.79-.47,3.67-1.34,2.77-5.84,3.05-11.54.01-3.18,0-7,0-10.96-.13-7.5.33-15.16-.32-22.49-.34-6.04-6.53-5.41-11.37-5.52-6.47-.02-13.38,0-19.98,0-6.3.33-15-1.03-19.64,1.57-3.98,2.6-4.3,8.93-.09,12.11,2.13,1.68,5.65,2.23,10.06,2.29,7.08.6,19.91-1.99,23.53,4.75,1.97,3.97.31,9.31-2.92,12.13-3.1,2.69-11.62,1.9-17.11,2.15-6.25.01-13.05,0-19.41,0-9.18,0-16.48.15-20.36-1.28-3.82-1.47-4.54-4.43-5.14-10.46-.33-3.81-.22-8.62-.24-13.79.09-7.07-.33-14.29.58-21.13.6-5.01,2.67-7.01,8.36-7.17,3.7-.23,7.04-.14,10.98-.16,13.04,0,27.35,0,40.31,0,5.51-.02,10.24.05,13.74-.06,2-.11,3.87-.21,5.5-1.28,3.49-2.42,3.81-9.48,1.31-13.22-2.11-2.8-6.07-2.31-9.38-2.43-17.71.08-53.68-.15-69.99.08-6.89.27-12.47,5.14-15.94,10.94l-.07.13ZM337.1,33.6c-1.46.4-1.79,1.71-1.79,3.06-.04,2.64,0,7.2-.02,12.8v13.73c0,16.22,0,34.56,0,41.68,0,1.84.17,3.34,1.28,4.91,2.36,3.15,5.61,6.39,8.76,8.86,2.99,2.33,7.38,1.16,11.18,1.43,17.89,0,48.06,0,62.59,0,4.77,0,7.58.57,11.04-3,1.77-1.61,3.69-3.42,5.39-5.09,1.73-1.76,3.31-3.18,3.61-5.53.39-7.8.01-22.16.14-38.32,0-5.47,0-10.85,0-15.66-.2-8.21.43-12.89-.3-17.53-1.17-2.68-8.84-1.99-11.82-.94-2.62.75-4.52,2.78-4.59,5.55-.34,2.71-.31,7.83-.29,11.6-.07,14.88.14,31.3-.08,46.25-.3,7.64-6.7,6.63-12.56,6.68-14.58,0-32.18,0-46.31,0-5.79.26-10.73-.4-11.83-6.34-.62-11.64-.02-46.35-.23-59.42.09-2.31-.13-4.6-2.82-4.89-3.03-.43-7.95-.62-11.28.15l-.1.03ZM176.37,44.02c-.17,14.21-.03,62.49-.07,64.86.09.5.43.5,1.07,1.25,2.19,2.19,7.87,7.87,9.36,9.36.47.4.42.53.77.57,5.18-.07,63.21.06,80.68,0,3.41-3.08,7.54-7.52,11-10.88,1.32-1.33,1.09-1.01,1.11-1.71,0-.39,0-.75,0-1.17.03-13.84-.02-57,0-61.04-.07-.41-.27-.38-.74-.93-1.75-1.75-7.28-7.28-9.3-9.3-1.02-.85-.8-1.65-1.18-1.95-3.03,0-45.7,0-68.14,0-7.88.08-12.86-.15-13.71.1-2.23,2.06-7.96,7.99-10.83,10.83l-.02.03ZM192.49,51.88c.44-.39,1.38-1.51,1.87-1.81,11.3.01,35.51-.04,48.93-.02,9.7,0,17.15,0,17.92,0,.48.2,1.42,1.41,1.9,1.83.44,5.46.08,33.93.19,43.45-.06,3.29.11,5.17-.07,5.73-.49.63-1.49,1.48-2.22,2.27-.42.39-.5.55-.78.7-.43.03-3.44,0-8,.01-7.48,0-17.98,0-26.32,0-14.67,0-28.6.02-29.55-.01-.93-.36-2.04-.93-2.99-1.92-.35-.36-.83-.77-1.05-1.16-.04-.81,0-9.07-.02-18.62.08-8.4-.22-23.72.13-30.4l.06-.07Z"/>
    <path id="pink-accent-elements" class="cls-2" d="M910.44,172.29v3.06l1.53,1.53h1.53l3.06,3.06h1.53l7.64,4.58v1.53l-1.53,1.53h-1.53l-6.11,4.58-4.58,1.53-1.53,1.53v3.06h1.53l1.53-1.53,7.64-3.06,7.64-6.11h1.53l1.53-1.53v-1.53h-1.53l-3.06-3.06-4.58-1.53-3.06-3.06h-1.53l-6.11-4.58h-1.53ZM143.48,171.09c-2.83-.01-5.57,2.18-8,3.54-3.07,1.96-6.26,3.61-9.28,5.49-11.06,6.52,5.17,11.26,10.05,14.45,2.19,1.02,5.57,4.39,7.95,3.11.76-.63.25-2.03-1.29-3.24-3.66-2.89-12.78-4.59-13.42-10.01.07-1.87,2.82-3.29,5.22-4.69,2.46-1.36,4.72-3,6.94-4.59.92-.64,4.06-3.46,1.94-4.04h-.11ZM904.11,164.65h-3.06v1.53l-1.53,1.53v3.06l-4.58,7.64v3.06l-1.53,1.53v1.53l-3.06,4.58v3.06l-3.06,4.58v3.06l-3.06,3.06v1.53h3.06l1.53-1.53v-1.53l4.58-7.64v-3.06l3.06-4.58v-3.06l4.58-7.64v-3.06l3.06-4.58v-3.06Z"/>
  </g>
</svg>